<?xml version="1.0" encoding="utf-8"?>
<!-- Generator: Adobe Illustrator 27.2.0, SVG Export Plug-In . SVG Version: 6.00 Build 0)  -->
<svg version="1.1" id="Layer_1" xmlns="http://www.w3.org/2000/svg" xmlns:xlink="http://www.w3.org/1999/xlink" x="0px" y="0px"
	 viewBox="0 0 512 512" style="enable-background:new 0 0 512 512;" xml:space="preserve">
<style type="text/css">
	.st0{fill-rule:evenodd;clip-rule:evenodd;fill:#2E86DE;}
	.st1{fill:#2E86DE;}
	.st2{fill-rule:evenodd;clip-rule:evenodd;fill:#FEC957;}
	.st3{fill-rule:evenodd;clip-rule:evenodd;fill:#FF6B6B;}
	.st4{fill:#54A0FF;}
</style>
<g>
	<path class="st0" d="M40.96,81.92h430.08c16.97,0,30.72,13.75,30.72,30.72v286.72c0,16.97-13.75,30.72-30.72,30.72H40.96
		c-16.97,0-30.72-13.75-30.72-30.72V112.64C10.24,95.67,23.99,81.92,40.96,81.92z"/>
	<path class="st1" d="M40.96,81.92v10.24h430.08c5.69,0.01,10.74,2.28,14.48,6c3.72,3.74,5.99,8.79,6,14.48v286.72
		c-0.01,5.69-2.28,10.74-6,14.48c-3.74,3.72-8.79,5.99-14.48,6H40.96c-5.69-0.01-10.74-2.28-14.48-6c-3.72-3.74-5.99-8.79-6-14.48
		V112.64c0.01-5.69,2.28-10.74,6-14.48c3.74-3.72,8.79-5.99,14.48-6V81.92V71.68C18.33,71.69,0.01,90.01,0,112.64v286.72
		c0.01,22.63,18.33,40.95,40.96,40.96h430.08c22.63-0.01,40.95-18.33,40.96-40.96V112.64c-0.01-22.63-18.33-40.95-40.96-40.96H40.96
		V81.92z"/>
	
		<ellipse transform="matrix(0.1602 -0.9871 0.9871 0.1602 16.5422 670.7073)" class="st2" cx="402.43" cy="325.63" rx="49.15" ry="49.15"/>
	
		<ellipse transform="matrix(0.1602 -0.9871 0.9871 0.1602 -35.0562 610.0606)" class="st3" cx="340.99" cy="325.63" rx="49.15" ry="49.15"/>
	<path class="st4" d="M61.44,230.4h81.92c5.66,0,10.24-4.58,10.24-10.24c0-5.66-4.58-10.24-10.24-10.24H61.44
		c-5.66,0-10.24,4.58-10.24,10.24C51.2,225.82,55.78,230.4,61.44,230.4"/>
	<path class="st4" d="M174.08,230.4H256c5.66,0,10.24-4.58,10.24-10.24c0-5.66-4.58-10.24-10.24-10.24h-81.92
		c-5.66,0-10.24,4.58-10.24,10.24C163.84,225.82,168.42,230.4,174.08,230.4"/>
	<path class="st4" d="M286.72,230.4h81.92c5.66,0,10.24-4.58,10.24-10.24c0-5.66-4.58-10.24-10.24-10.24h-81.92
		c-5.66,0-10.24,4.58-10.24,10.24C276.48,225.82,281.06,230.4,286.72,230.4"/>
	<path class="st4" d="M59.39,377.24h58.98c5.66,0,10.24-4.58,10.24-10.24c0-5.66-4.58-10.24-10.24-10.24H59.39
		c-5.66,0-10.24,4.58-10.24,10.24C49.15,372.66,53.74,377.24,59.39,377.24"/>
	<path class="st4" d="M147.87,377.24h58.98c5.66,0,10.24-4.58,10.24-10.24c0-5.66-4.58-10.24-10.24-10.24h-58.98
		c-5.66,0-10.24,4.58-10.24,10.24C137.63,372.66,142.21,377.24,147.87,377.24"/>
	<path class="st4" d="M59.39,328.09h147.46c5.66,0,10.24-4.58,10.24-10.24c0-5.66-4.58-10.24-10.24-10.24H59.39
		c-5.66,0-10.24,4.58-10.24,10.24C49.15,323.51,53.74,328.09,59.39,328.09"/>
	<path class="st4" d="M59.39,151.14h44.24c5.66,0,10.24-4.58,10.24-10.24c0-5.66-4.58-10.24-10.24-10.24H59.39
		c-5.66,0-10.24,4.58-10.24,10.24C49.15,146.56,53.74,151.14,59.39,151.14"/>
</g>
</svg>
